<svg id="visual" viewBox="0 0 450 900" width="450" height="900" xmlns="http://www.w3.org/2000/svg" xmlns:xlink="http://www.w3.org/1999/xlink" version="1.1"><rect x="0" y="0" width="450" height="900" fill="#CCCCCC"></rect><defs><linearGradient id="grad1_0" x1="0%" y1="0%" x2="100%" y2="100%"><stop offset="30%" stop-color="#001122" stop-opacity="1"></stop><stop offset="70%" stop-color="#001122" stop-opacity="1"></stop></linearGradient></defs><defs><linearGradient id="grad1_1" x1="0%" y1="0%" x2="100%" y2="100%"><stop offset="30%" stop-color="#001122" stop-opacity="1"></stop><stop offset="70%" stop-color="#404855" stop-opacity="1"></stop></linearGradient></defs><defs><linearGradient id="grad1_2" x1="0%" y1="0%" x2="100%" y2="100%"><stop offset="30%" stop-color="#83878e" stop-opacity="1"></stop><stop offset="70%" stop-color="#404855" stop-opacity="1"></stop></linearGradient></defs><defs><linearGradient id="grad1_3" x1="0%" y1="0%" x2="100%" y2="100%"><stop offset="30%" stop-color="#83878e" stop-opacity="1"></stop><stop offset="70%" stop-color="#cccccc" stop-opacity="1"></stop></linearGradient></defs><defs><linearGradient id="grad2_0" x1="0%" y1="0%" x2="100%" y2="100%"><stop offset="30%" stop-color="#001122" stop-opacity="1"></stop><stop offset="70%" stop-color="#001122" stop-opacity="1"></stop></linearGradient></defs><defs><linearGradient id="grad2_1" x1="0%" y1="0%" x2="100%" y2="100%"><stop offset="30%" stop-color="#404855" stop-opacity="1"></stop><stop offset="70%" stop-color="#001122" stop-opacity="1"></stop></linearGradient></defs><defs><linearGradient id="grad2_2" x1="0%" y1="0%" x2="100%" y2="100%"><stop offset="30%" stop-color="#404855" stop-opacity="1"></stop><stop offset="70%" stop-color="#83878e" stop-opacity="1"></stop></linearGradient></defs><defs><linearGradient id="grad2_3" x1="0%" y1="0%" x2="100%" y2="100%"><stop offset="30%" stop-color="#cccccc" stop-opacity="1"></stop><stop offset="70%" stop-color="#83878e" stop-opacity="1"></stop></linearGradient></defs><g transform="translate(450, 0)"><path d="M0 292.5C-15.8 258.6 -31.7 224.6 -60.6 226C-89.5 227.4 -131.5 264.2 -146.2 253.3C-161 242.5 -148.6 184 -156.3 156.3C-164 128.5 -191.8 131.5 -211.3 122C-230.8 112.5 -241.9 90.5 -254 68.1C-266.2 45.7 -279.3 22.8 -292.5 0L0 0Z" fill="#a7a9ad"></path><path d="M0 219.4C-11.9 193.9 -23.7 168.5 -45.4 169.5C-67.1 170.6 -98.6 198.1 -109.7 190C-120.8 181.8 -111.4 138 -117.2 117.2C-123 96.4 -143.9 98.6 -158.5 91.5C-173.1 84.4 -181.4 67.9 -190.5 51.1C-199.6 34.2 -209.5 17.1 -219.4 0L0 0Z" fill="#616771"></path><path d="M0 146.3C-7.9 129.3 -15.8 112.3 -30.3 113C-44.7 113.7 -65.7 132.1 -73.1 126.7C-80.5 121.2 -74.3 92 -78.1 78.1C-82 64.3 -95.9 65.8 -105.7 61C-115.4 56.2 -121 45.2 -127 34C-133.1 22.8 -139.7 11.4 -146.2 0L0 0Z" fill="#212c3b"></path><path d="M0 73.1C-4 64.6 -7.9 56.2 -15.1 56.5C-22.4 56.9 -32.9 66 -36.6 63.3C-40.3 60.6 -37.1 46 -39.1 39.1C-41 32.1 -48 32.9 -52.8 30.5C-57.7 28.1 -60.5 22.6 -63.5 17C-66.5 11.4 -69.8 5.7 -73.1 0L0 0Z" fill="#001122"></path></g><g transform="translate(0, 900)"><path d="M0 -292.5C28 -293 55.9 -293.5 73.2 -273.4C90.6 -253.2 97.3 -212.5 113 -195.7C128.7 -178.9 153.4 -186.1 183.8 -183.8C214.3 -181.6 250.4 -169.8 253.3 -146.3C256.2 -122.7 226 -87.2 227 -60.8C228 -34.5 260.2 -17.2 292.5 0L0 0Z" fill="#a7a9ad"></path><path d="M0 -219.4C21 -219.7 41.9 -220.1 54.9 -205C67.9 -189.9 73 -159.4 84.7 -146.8C96.5 -134.2 115.1 -139.6 137.9 -137.9C160.7 -136.2 187.8 -127.4 190 -109.7C192.2 -92 169.5 -65.4 170.2 -45.6C171 -25.9 195.2 -12.9 219.4 0L0 0Z" fill="#616771"></path><path d="M0 -146.2C14 -146.5 28 -146.7 36.6 -136.7C45.3 -126.6 48.6 -106.3 56.5 -97.9C64.4 -89.5 76.7 -93.1 91.9 -91.9C107.1 -90.8 125.2 -84.9 126.7 -73.1C128.1 -61.3 113 -43.6 113.5 -30.4C114 -17.2 130.1 -8.6 146.3 0L0 0Z" fill="#212c3b"></path><path d="M0 -73.1C7 -73.2 14 -73.4 18.3 -68.3C22.6 -63.3 24.3 -53.1 28.2 -48.9C32.2 -44.7 38.4 -46.5 46 -46C53.6 -45.4 62.6 -42.5 63.3 -36.6C64.1 -30.7 56.5 -21.8 56.7 -15.2C57 -8.6 65.1 -4.3 73.1 0L0 0Z" fill="#001122"></path></g></svg>