<svg id="visual" viewBox="0 0 600 900" width="600" height="900" xmlns="http://www.w3.org/2000/svg" xmlns:xlink="http://www.w3.org/1999/xlink" version="1.1"><rect x="0" y="0" width="600" height="900" fill="#ffffff"></rect><path d="M0 359L25 346.5C50 334 100 309 150 298.2C200 287.3 250 290.7 300 304.7C350 318.7 400 343.3 450 336.3C500 329.3 550 290.7 575 271.3L600 252L600 0L575 0C550 0 500 0 450 0C400 0 350 0 300 0C250 0 200 0 150 0C100 0 50 0 25 0L0 0Z" fill="#590026" stroke-linecap="round" stroke-linejoin="miter"></path></svg>